PathFileType	4	(X/Y/Z)	/Users/itak/Documents/Research/Walk-IL/dataset/trc/00487_00167.trc
DataRate	CameraRate	NumFrames	NumMarkers	Units	OrigDataRate	OrigDataStartFrame	OrigNumFrames
100.000000	100.000000	4	53	mm	100.000000	451	516
Frame#	Time	RPSI			LPSI			L3			STRN			T10			C7			CLAV			RBAK			LBAK			LSHO			LUPA			LAEL			LAOL			LWTS			LWPS			LFRA			LIFD			LHPS			LHTS			RSHO			RUPA			RAEL			RAOL			RWTS			RWPS			RFRA			RIFD			RHTS			RHPS			RBHD			LFHD			RFHD			LBHD			LHIP			RHIP			RASI			LASI			LKNE			LTHI			LANK			LTIP			LTOE			LMT1			LMT5			LHEE			RKNE			RTHI			RANK			RTIP			RTOE			RMT1			RMT5			RHEE			
		X1	Y1	Z1	X2	Y2	Z2	X3	Y3	Z3	X4	Y4	Z4	X5	Y5	Z5	X6	Y6	Z6	X7	Y7	Z7	X8	Y8	Z8	X9	Y9	Z9	X10	Y10	Z10	X11	Y11	Z11	X12	Y12	Z12	X13	Y13	Z13	X14	Y14	Z14	X15	Y15	Z15	X16	Y16	Z16	X17	Y17	Z17	X18	Y18	Z18	X19	Y19	Z19	X20	Y20	Z20	X21	Y21	Z21	X22	Y22	Z22	X23	Y23	Z23	X24	Y24	Z24	X25	Y25	Z25	X26	Y26	Z26	X27	Y27	Z27	X28	Y28	Z28	X29	Y29	Z29	X30	Y30	Z30	X31	Y31	Z31	X32	Y32	Z32	X33	Y33	Z33	X34	Y34	Z34	X35	Y35	Z35	X36	Y36	Z36	X37	Y37	Z37	X38	Y38	Z38	X39	Y39	Z39	X40	Y40	Z40	X41	Y41	Z41	X42	Y42	Z42	X43	Y43	Z43	X44	Y44	Z44	X45	Y45	Z45	X46	Y46	Z46	X47	Y47	Z47	X48	Y48	Z48	X49	Y49	Z49	X50	Y50	Z50	X51	Y51	Z51	X52	Y52	Z52	X53	Y53	Z53	

452	4.51	361.5292358398438	966.5723876953125	-385.981201171875	219.6774444580078	965.3811645507812	-394.3071594238281	309.3660278320312	1054.3994140625	-405.6921997070312	304.4889526367188	1252.260131835938	-665.7293090820312	308.1668701171875	1178.553833007812	-386.3024291992188	323.357666015625	1449.856079101562	-443.8193969726562	302.9408264160156	1365.212036132812	-628.7588500976562	419.0452880859375	1326.454223632812	-386.8686218261719	224.4420623779297	1401.854125976562	-408.734375	142.8635406494141	1423.985107421875	-509.1781311035156	43.14713287353516	1306.402709960938	-500.3924560546875	4.303883075714111	1091.947509765625	-524.4356079101562	71.56639099121094	1074.829345703125	-446.1922607421875	44.48627090454102	885.9229736328125	-603.5144653320312	-14.51712703704834	874.7960205078125	-557.9445190429688	-7.350832462310791	1004.205688476562	-545.3026123046875	36.24269866943359	722.24658203125	-604.5790405273438	-16.0314998626709	796.3480834960938	-565.0774536132812	33.52208709716797	799.69140625	-618.1516723632812	479.8101806640625	1417.215087890625	-518.2447509765625	556.0861206054688	1357.406860351562	-504.7814636230469	625.719482421875	1074.82861328125	-525.2769165039062	588.7916870117188	1050.284790039062	-473.7900695800781	574.3627319335938	886.3026733398438	-652.94384765625	637.8279418945312	863.1287231445312	-596.0001831054688	635.9566040039062	1017.567199707031	-537.8811645507812	581.9014282226562	733.869873046875	-682.3030395507812	586.3184204101562	795.4237060546875	-686.9036865234375	633.1668701171875	779.4765625	-627.1138916015625	410.5834350585938	1646.716064453125	-538.7777099609375	238.22900390625	1667.56201171875	-650.9346923828125	367.1650390625	1666.562744140625	-667.9143676757812	237.9106292724609	1651.611572265625	-497.4779968261719	106.7376861572266	862.8385009765625	-532.7197265625	503.8437805175781	856.5453491210938	-490.2438659667969	447.9756774902344	895.3433837890625	-601.8244018554688	190.2880706787109	896.9352416992188	-628.0025634765625	130.1806030273438	444.2161865234375	-541.1326904296875	112.6087188720703	595.0364379882812	-562.994384765625	120.4156875610352	40.46772384643555	-481.1955871582031	113.2421035766602	299.4202880859375	-537.558349609375	209.5951232910156	42.50006484985352	-708.32177734375	232.3815460205078	47.75074005126953	-628.6727905273438	119.9158706665039	44.72880554199219	-636.0072631835938	182.3885955810547	45.03237152099609	-433.7751770019531	470.7305908203125	463.076416015625	-509.5659484863281	510.9161987304688	722.3777465820312	-533.3327026367188	465.8272705078125	36.06612396240234	-457.373291015625	479.1107788085938	323.1686096191406	-508.4383239746094	426.4479370117188	45.7382698059082	-677.0584716796875	389.765625	53.60894393920898	-614.434814453125	496.4595031738281	40.90169525146484	-588.3744506835938	416.9010925292969	29.68393135070801	-395.2501220703125	
453	4.52	361.1749267578125	966.5924682617188	-385.9977416992188	219.2940216064453	965.4115600585938	-394.1750793457031	309.05029296875	1054.427124023438	-405.7169799804688	303.7965393066406	1252.353149414062	-665.8397827148438	307.8479614257812	1178.583862304688	-386.3890380859375	322.8567504882812	1449.86328125	-443.8515319824219	302.3017578125	1365.322387695312	-628.8963012695312	418.7769775390625	1326.510864257812	-387.0841369628906	224.1150054931641	1401.807983398438	-408.6742553710938	142.2887115478516	1423.992309570312	-508.9595031738281	42.59185028076172	1306.402221679688	-500.09619140625	3.778255939483643	1091.92333984375	-524.2578125	71.12165832519531	1074.724731445312	-446.1451110839844	44.09920501708984	886.086669921875	-603.837646484375	-14.92395973205566	874.8323974609375	-558.2186889648438	-7.89361572265625	1004.190185546875	-545.2566528320312	35.88286972045898	722.48681640625	-605.0618896484375	-16.32904243469238	796.380126953125	-565.5526733398438	33.12018966674805	799.9554443359375	-618.6539306640625	479.2199401855469	1417.3349609375	-518.5433349609375	555.5993041992188	1357.538330078125	-505.3261108398438	625.2684936523438	1075.021606445312	-526.6104736328125	588.4412841796875	1050.273803710938	-475.12353515625	573.7332763671875	887.072021484375	-654.9141845703125	637.2240600585938	863.6155395507812	-598.2035522460938	635.4891357421875	1017.806518554688	-539.4332275390625	581.3497314453125	734.7671508789062	-685.0365600585938	585.7048950195312	796.3165283203125	-689.3477783203125	632.6224365234375	780.124755859375	-629.6740112304688	409.966796875	1646.763427734375	-538.5372924804688	237.5824127197266	1667.784057617188	-650.6142578125	366.505615234375	1666.820190429688	-667.6317749023438	237.2706146240234	1651.516845703125	-497.2376403808594	106.0274200439453	862.9248657226562	-532.285400390625	503.6156005859375	856.5914306640625	-490.2124938964844	447.4174194335938	895.3624267578125	-601.8511962890625	189.7980346679688	897.0372314453125	-627.9083862304688	129.9502563476562	444.2256469726562	-541.375244140625	112.2474594116211	595.0838623046875	-563.1295166015625	120.3885498046875	40.45569229125977	-481.1844177246094	113.1849670410156	299.3506164550781	-537.7796020507812	209.5257263183594	42.52461624145508	-708.32421875	232.3291015625	47.82292556762695	-628.6712036132812	119.8784027099609	44.73269271850586	-635.9822998046875	182.36376953125	45.02843856811523	-433.7844543457031	470.4714965820312	463.0713806152344	-509.8087158203125	510.4898376464844	722.3832397460938	-533.5360717773438	465.8224182128906	36.09811019897461	-457.3851623535156	479.0180969238281	323.1893310546875	-508.5542907714844	426.4401245117188	45.74131774902344	-677.0619506835938	389.7470703125	53.59951019287109	-614.4472045898438	496.439697265625	40.93850708007812	-588.3850708007812	416.896240234375	29.69588851928711	-395.2479248046875	
454	4.53	360.8319091796875	966.6226196289062	-386.0222473144531	218.9155883789062	965.44873046875	-394.0463256835938	308.7635803222656	1054.450927734375	-405.7363891601562	303.1691284179688	1252.4931640625	-665.9744873046875	307.5805053710938	1178.61669921875	-386.4678649902344	322.3887023925781	1449.860473632812	-443.8857727050781	301.6695556640625	1365.429321289062	-629.0361938476562	418.5267333984375	1326.561157226562	-387.3201904296875	223.8046569824219	1401.755859375	-408.5985107421875	141.7175445556641	1423.992919921875	-508.7285766601562	42.05746078491211	1306.394287109375	-499.8030090332031	3.307186365127563	1091.892456054688	-524.127197265625	70.69101715087891	1074.606689453125	-446.1376953125	43.76322555541992	886.2716674804688	-604.2247314453125	-15.25899314880371	874.8628540039062	-558.5607299804688	-8.385689735412598	1004.171752929688	-545.2778930664062	35.57083129882812	722.70703125	-605.6025390625	-16.57826232910156	796.4212646484375	-566.090087890625	32.76668548583984	800.200439453125	-619.21533203125	478.6574096679688	1417.452514648438	-518.8572387695312	555.13427734375	1357.657958984375	-505.8926086425781	624.7889404296875	1075.190185546875	-527.909912109375	588.0612182617188	1050.27001953125	-476.4174499511719	573.08837890625	887.736328125	-656.749267578125	636.5789184570312	864.0428466796875	-600.2520751953125	634.990478515625	1018.01513671875	-540.9183959960938	580.754638671875	735.5276489257812	-687.5177612304688	585.0429077148438	797.0642700195312	-691.5906982421875	632.0451049804688	780.6847534179688	-632.0122680664062	409.3573608398438	1646.81494140625	-538.315185546875	236.9209899902344	1668.002563476562	-650.2798461914062	365.8310241699219	1667.07568359375	-667.3606567382812	236.6473541259766	1651.434326171875	-496.9725952148438	105.1691131591797	863.0220947265625	-531.7066040039062	503.2569885253906	856.6324462890625	-490.2926940917969	446.8663940429688	895.384033203125	-601.9035034179688	189.3036041259766	897.134033203125	-627.8005981445312	129.7364807128906	444.228271484375	-541.6233520507812	111.8812713623047	595.1400146484375	-563.2364501953125	120.3673629760742	40.4437141418457	-481.178955078125	113.1196975708008	299.2744445800781	-537.974365234375	209.4544982910156	42.55099487304688	-708.3290405273438	232.2803955078125	47.88743591308594	-628.6748046875	119.834831237793	44.73065185546875	-635.9601440429688	182.3434448242188	45.02634429931641	-433.7922058105469	470.2124633789062	463.0649108886719	-510.0447998046875	510.068359375	722.39013671875	-533.7484130859375	465.8115234375	36.12854385375977	-457.3984375	478.9204406738281	323.2042846679688	-508.6784362792969	426.43115234375	45.74457931518555	-677.0670776367188	389.7296752929688	53.58972549438477	-614.4598388671875	496.4214477539062	40.97600555419922	-588.3967895507812	416.8892517089844	29.71021270751953	-395.2448120117188	
455	4.54	360.5050048828125	966.6624145507812	-386.0514831542969	218.5502777099609	965.4939575195312	-393.9303588867188	308.4988708496094	1054.46728515625	-405.750732421875	302.5850219726562	1252.657836914062	-666.1234130859375	307.3562622070312	1178.650756835938	-386.5370178222656	321.9543151855469	1449.852783203125	-443.9289245605469	301.0404052734375	1365.527099609375	-629.1674194335938	418.2946166992188	1326.605590820312	-387.5725708007812	223.4989471435547	1401.70166015625	-408.510498046875	141.1649932861328	1423.984741210938	-508.5000915527344	41.55780029296875	1306.379028320312	-499.5272827148438	2.886416912078857	1091.853393554688	-524.046630859375	70.28046417236328	1074.477905273438	-446.16552734375	43.46656036376953	886.4730834960938	-604.6625366210938	-15.52740573883057	874.888671875	-558.9710083007812	-8.819112777709961	1004.153930664062	-545.3724365234375	35.30308151245117	722.901611328125	-606.20166015625	-16.79108619689941	796.4685668945312	-566.68115234375	32.45919418334961	800.4210815429688	-619.8355712890625	478.123046875	1417.564697265625	-519.1875	554.6846923828125	1357.764526367188	-506.4770202636719	624.2821655273438	1075.335815429688	-529.1714477539062	587.6522216796875	1050.2744140625	-477.6679382324219	572.4300537109375	888.2933959960938	-658.4484252929688	635.9000244140625	864.4078369140625	-602.1382446289062	634.4600219726562	1018.192626953125	-542.3350219726562	580.1104736328125	736.1485595703125	-689.7421264648438	584.3346557617188	797.6691284179688	-693.626953125	631.4322509765625	781.1524658203125	-634.1278076171875	408.7509155273438	1646.872436523438	-538.11474609375	236.2416229248047	1668.21533203125	-649.9392700195312	365.1438903808594	1667.329467773438	-667.1038208007812	236.0397338867188	1651.366455078125	-496.6822814941406	104.1922760009766	863.1219482421875	-531.014404296875	502.7560729980469	856.6658935546875	-490.490478515625	446.32470703125	895.408447265625	-601.9878540039062	188.7915802001953	897.2168579101562	-627.6817016601562	129.5395812988281	444.2215576171875	-541.8554077148438	111.5048522949219	595.1958618164062	-563.3048706054688	120.3492813110352	40.43122482299805	-481.1758728027344	113.0455169677734	299.195556640625	-538.1298828125	209.3777770996094	42.57920074462891	-708.336181640625	232.2337493896484	47.94759368896484	-628.6829833984375	119.7817687988281	44.72034454345703	-635.939453125	182.3271331787109	45.02584838867188	-433.7968139648438	469.9540710449219	463.0588989257812	-510.2705078125	509.6863708496094	722.4078979492188	-533.9387817382812	465.7964172363281	36.15846252441406	-457.4122314453125	478.8041687011719	323.209228515625	-508.8189697265625	426.4206237792969	45.74752426147461	-677.0740966796875	389.7120971679688	53.57964706420898	-614.4718017578125	496.4042053222656	41.01195907592773	-588.4082641601562	416.8800964355469	29.72703170776367	-395.2409362792969	
